<svg xmlns="http://www.w3.org/2000/svg" viewBox="0 0 1200 400" width="1200" height="400" role="img" aria-label="Stack of biscuits with a jam jar and spoon">
  <rect width="1200" height="400" fill="#2F8F6B"/>
  <circle cx="880" cy="200" r="235" fill="#000" opacity="0.08"/>

  <!-- biscuit stack -->
  <g transform="rotate(-3 756 280)">
    <ellipse cx="756" cy="292" rx="72" ry="20" fill="#000" opacity="0.12"/>
    <path d="M684 292 v22 a72 20 0 0 0 144 0 v-22 z" fill="#000" opacity="0.12"/>
    <path d="M684 286 v22 a72 20 0 0 0 144 0 v-22 z" fill="#E0A413"/>
    <ellipse cx="756" cy="286" rx="72" ry="20" fill="#F2E3C4"/>
    <path d="M690 264 v22 a72 20 0 0 0 144 0 v-22 z" fill="#E0A413"/>
    <ellipse cx="762" cy="264" rx="72" ry="20" fill="#F2E3C4"/>
    <path d="M680 242 v22 a72 20 0 0 0 144 0 v-22 z" fill="#E0A413"/>
    <ellipse cx="752" cy="242" rx="72" ry="20" fill="#F2E3C4"/>
    <g fill="#6B4A2A">
      <circle cx="752" cy="242" r="4.5"/><circle cx="716" cy="238" r="4.5"/><circle cx="788" cy="238" r="4.5"/>
      <circle cx="734" cy="254" r="4.5"/><circle cx="770" cy="252" r="4.5"/>
    </g>
  </g>

  <!-- loose biscuit -->
  <g>
    <circle cx="880" cy="292" r="64" fill="#000" opacity="0.12"/>
    <circle cx="880" cy="286" r="64" fill="#E0A413"/>
    <circle cx="880" cy="286" r="55" fill="#F2E3C4"/>
    <g fill="#6B4A2A">
      <circle cx="880" cy="286" r="5"/><circle cx="880" cy="254" r="5"/><circle cx="908" cy="270" r="5"/>
      <circle cx="908" cy="302" r="5"/><circle cx="880" cy="318" r="5"/><circle cx="852" cy="302" r="5"/>
      <circle cx="852" cy="270" r="5"/>
    </g>
  </g>

  <!-- jam jar -->
  <g transform="rotate(5 990 250)">
    <rect x="938" y="152" width="108" height="34" rx="10" fill="#000" opacity="0.12"/>
    <rect x="930" y="202" width="124" height="148" rx="14" fill="#000" opacity="0.12"/>
    <rect x="946" y="168" width="92" height="40" rx="8" fill="#E8455A"/>
    <rect x="930" y="196" width="124" height="148" rx="14" fill="#E8455A"/>
    <rect x="940" y="212" width="12" height="108" rx="6" fill="#FFFFFF" opacity="0.25"/>
    <rect x="944" y="244" width="96" height="58" rx="8" fill="#FFF6F9"/>
    <path d="M982 258q14-10 22 2-12 8-22-2z" fill="#31C48D"/>
    <g fill="#E8455A">
      <circle cx="970" cy="274" r="9"/><circle cx="994" cy="274" r="9"/><circle cx="982" cy="290" r="9"/>
    </g>
    <rect x="938" y="146" width="108" height="34" rx="10" fill="#7C5CFF"/>
    <rect x="946" y="154" width="92" height="7" rx="3" fill="#5B3AC4"/>
  </g>

  <!-- spoon with jam -->
  <g transform="rotate(24 880 250)">
    <ellipse cx="880" cy="158" rx="25" ry="32" fill="#000" opacity="0.12"/>
    <rect x="871" y="184" width="18" height="122" rx="9" fill="#000" opacity="0.12"/>
    <ellipse cx="880" cy="152" rx="25" ry="32" fill="#B9BCC4"/>
    <rect x="871" y="178" width="18" height="122" rx="9" fill="#B9BCC4"/>
    <ellipse cx="880" cy="150" rx="16" ry="21" fill="#E8455A"/>
    <rect x="876" y="198" width="7" height="90" rx="3" fill="#FFFFFF" opacity="0.35"/>
  </g>
</svg>
