<svg xmlns="http://www.w3.org/2000/svg" viewBox="0 0 1200 400" width="1200" height="400" role="img" aria-label="Confetti popper, confetti burst and a party horn">
  <rect width="1200" height="400" fill="#5B6BD6"/>
  <circle cx="880" cy="200" r="235" fill="#000" opacity="0.08"/>

  <!-- popper -->
  <g transform="rotate(35 740 290)">
    <g fill="#000" opacity="0.12" transform="translate(0 6)">
      <path d="M712 338h56l16-112h-88z"/>
      <ellipse cx="740" cy="338" rx="28" ry="8"/>
      <ellipse cx="740" cy="226" rx="44" ry="12"/>
    </g>
    <path d="M740 344q14 16-4 26" fill="none" stroke="#FFF6F9" stroke-width="4" stroke-linecap="round"/>
    <path d="M712 338h56l16-112h-88z" fill="#E8455A"/>
    <ellipse cx="740" cy="338" rx="28" ry="8" fill="#5B3AC4"/>
    <rect x="704" y="266" width="72" height="16" fill="#FFC94A"/>
    <rect x="709" y="296" width="62" height="14" fill="#FFF6F9"/>
    <ellipse cx="740" cy="226" rx="44" ry="12" fill="#E8455A"/>
    <ellipse cx="740" cy="226" rx="34" ry="8" fill="#5B3AC4"/>
  </g>

  <!-- confetti burst -->
  <g fill="#000" opacity="0.12" transform="translate(0 6)">
    <rect x="828" y="191" width="20" height="11" rx="2" transform="rotate(28 838 196)"/>
    <rect x="877" y="151" width="18" height="10" rx="2" transform="rotate(-18 886 156)"/>
    <rect x="919" y="205" width="22" height="11" rx="2" transform="rotate(52 930 210)"/>
    <circle cx="952" cy="138" r="9"/>
    <rect x="990" y="173" width="19" height="10" rx="2" transform="rotate(-34 1000 178)"/>
    <rect x="1038" y="123" width="17" height="10" rx="2" transform="rotate(16 1046 128)"/>
    <circle cx="1092" cy="186" r="8"/>
    <rect x="860" y="248" width="16" height="9" rx="2" transform="rotate(68 868 252)"/>
    <rect x="1099" y="221" width="18" height="10" rx="2" transform="rotate(-46 1108 226)"/>
  </g>
  <g>
    <rect x="828" y="191" width="20" height="11" rx="2" transform="rotate(28 838 196)" fill="#FFC94A"/>
    <rect x="877" y="151" width="18" height="10" rx="2" transform="rotate(-18 886 156)" fill="#31C48D"/>
    <rect x="919" y="205" width="22" height="11" rx="2" transform="rotate(52 930 210)" fill="#FFF6F9"/>
    <circle cx="952" cy="138" r="9" fill="#E8618C"/>
    <rect x="990" y="173" width="19" height="10" rx="2" transform="rotate(-34 1000 178)" fill="#E8618C"/>
    <rect x="1038" y="123" width="17" height="10" rx="2" transform="rotate(16 1046 128)" fill="#E8455A"/>
    <circle cx="1092" cy="186" r="8" fill="#FFF6F9"/>
    <rect x="860" y="248" width="16" height="9" rx="2" transform="rotate(68 868 252)" fill="#FFC94A"/>
    <rect x="1099" y="221" width="18" height="10" rx="2" transform="rotate(-46 1108 226)" fill="#31C48D"/>
  </g>

  <!-- party horn -->
  <g transform="rotate(-10 1066 283)">
    <g fill="#000" opacity="0.12" transform="translate(0 6)">
      <path d="M1030 272l84-28v78l-84-28z"/>
      <ellipse cx="1114" cy="283" rx="9" ry="39"/>
      <path d="M1030 283A16 16 0 0 1 998 283A13 13 0 0 1 1024 283A10 10 0 0 1 1004 283A7 7 0 0 1 1018 283" fill="none" stroke="#000" stroke-width="6" stroke-linecap="round"/>
    </g>
    <path d="M1030 272l84-28v78l-84-28z" fill="#FFC94A"/>
    <ellipse cx="1114" cy="283" rx="9" ry="39" fill="#E0A413"/>
    <path d="M1054 267v32M1084 257v52" fill="none" stroke="#E8455A" stroke-width="8"/>
    <path d="M1030 283A16 16 0 0 1 998 283A13 13 0 0 1 1024 283A10 10 0 0 1 1004 283A7 7 0 0 1 1018 283" fill="none" stroke="#E8618C" stroke-width="6" stroke-linecap="round"/>
  </g>
</svg>
