<svg xmlns="http://www.w3.org/2000/svg" viewBox="0 0 1200 400" width="1200" height="400" role="img" aria-label="Garden trowel, hand fork, glove and a ball of twine">
 <rect width="1200" height="400" fill="#E8785A"/>
 <circle cx="880" cy="200" r="235" fill="#000" opacity="0.08"/>
 <defs>
  <g id="gl"><rect x="-44" y="-86" width="20" height="66" rx="10"/><rect x="-21" y="-92" width="20" height="72" rx="10"/><rect x="2" y="-88" width="20" height="68" rx="10"/><rect x="25" y="-74" width="20" height="54" rx="10"/><rect x="-62" y="-24" width="20" height="56" rx="10" transform="rotate(-38 -52 4)"/><rect x="-46" y="-26" width="92" height="86" rx="16"/></g>
  <rect id="gc" x="-52" y="48" width="104" height="34" rx="8"/>
  <path id="tb" d="M900 188c-42-4-78 6-94 26 16 20 52 30 94 26z"/>
  <path id="fk" d="M878 264h-40l-18 6 18 6h40zM878 288h-40l-18 6 18 6h40zM878 312h-40l-18 6 18 6h40z"/>
 </defs>
 <!-- glove -->
 <g fill="#000" opacity=".12" transform="translate(0 6)">
  <use href="#gl" transform="translate(776 222)rotate(-10)"/><use href="#gc" transform="translate(776 222)rotate(-10)"/>
 </g>
 <g transform="translate(776 222)rotate(-10)">
  <use href="#gl" fill="#FFF6F9"/>
  <rect x="-30" y="-4" width="52" height="34" rx="12" fill="#B9BCC4" opacity=".45"/>
  <use href="#gc" fill="#5B6BD6"/>
  <rect x="-52" y="58" width="104" height="7" fill="#FFF6F9" opacity=".5"/>
 </g>
 <!-- trowel -->
 <g fill="#000" opacity=".12" transform="translate(0 6)rotate(-18 890 214)">
  <use href="#tb"/><rect x="896" y="194" width="24" height="40" rx="4"/><rect x="916" y="198" width="84" height="32" rx="16"/>
 </g>
 <g transform="rotate(-18 890 214)">
  <use href="#tb" fill="#B9BCC4"/>
  <path d="M886 214h-66" stroke="#FFF" stroke-width="7" opacity=".35" stroke-linecap="round"/>
  <rect x="896" y="194" width="24" height="40" rx="4" fill="#3A3A48"/>
  <rect x="916" y="198" width="84" height="32" rx="16" fill="#7C5CFF"/>
  <rect x="930" y="205" width="48" height="7" rx="3.5" fill="#FFF" opacity=".35"/>
 </g>
 <!-- hand fork -->
 <g fill="#000" opacity=".12" transform="translate(0 6)rotate(16 896 296)">
  <use href="#fk"/><rect x="868" y="256" width="30" height="80" rx="7"/>
  <rect x="894" y="282" width="22" height="28" rx="3"/><rect x="912" y="280" width="88" height="32" rx="16"/>
 </g>
 <g transform="rotate(16 896 296)">
  <use href="#fk" fill="#B9BCC4"/>
  <rect x="868" y="256" width="30" height="80" rx="7" fill="#B9BCC4"/>
  <rect x="894" y="282" width="22" height="28" rx="3" fill="#3A3A48"/>
  <rect x="912" y="280" width="88" height="32" rx="16" fill="#FFC94A"/>
  <rect x="926" y="287" width="52" height="7" rx="3.5" fill="#FFF" opacity=".35"/>
 </g>
 <!-- ball of twine -->
 <g fill="#000" opacity=".12" transform="translate(0 6)">
  <path d="M1002 326q-30 18-58 6" fill="none" stroke="#000" stroke-width="6" stroke-linecap="round"/>
  <circle cx="1040" cy="288" r="54"/>
 </g>
 <path d="M1002 326q-30 18-58 6" fill="none" stroke="#F2E3C4" stroke-width="6" stroke-linecap="round"/>
 <circle cx="1040" cy="288" r="54" fill="#F2E3C4"/>
 <g fill="none" stroke="#E0A413" stroke-width="5">
  <ellipse cx="1040" cy="288" rx="50" ry="19" transform="rotate(-24 1040 288)"/>
  <ellipse cx="1040" cy="288" rx="50" ry="25" transform="rotate(46 1040 288)"/>
  <ellipse cx="1040" cy="288" rx="48" ry="13" transform="rotate(80 1040 288)"/>
 </g>
</svg>
