<svg xmlns="http://www.w3.org/2000/svg" viewBox="0 0 1200 400" width="1200" height="400" role="img" aria-label="Open book with an apple and pencil">
  <rect width="1200" height="400" fill="#2F8F6B"/>
  <circle cx="880" cy="200" r="235" fill="#000" opacity="0.08"/>

  <!-- open book -->
  <g transform="rotate(-6 850 230)">
    <path d="M700 170q80-26 150 0v130q-70-26-150 0z" fill="#000" opacity="0.12" transform="translate(0 10)"/>
    <path d="M700 170q80-26 150 0v130q-70-26-150 0z" fill="#FFFFFF"/>
    <path d="M1000 170q-80-26-150 0v130q70-26 150 0z" fill="#FFF6F9"/>
    <path d="M850 170v130" stroke="#B9BCC4" stroke-width="4"/>
    <g stroke="#B9BCC4" stroke-width="6" stroke-linecap="round">
      <path d="M726 208h96M726 232h96M726 256h70"/>
      <path d="M878 208h96M878 232h96M878 256h70"/>
    </g>
  </g>

  <!-- apple -->
  <g>
    <ellipse cx="1030" cy="288" rx="46" ry="14" fill="#000" opacity="0.12"/>
    <path d="M1030 200c-34 0-52 24-52 52s24 44 52 44 52-16 52-44-18-52-52-52z" fill="#E8455A"/>
    <path d="M1030 200c-18 0-30 8-38 20 10 8 24 12 38 12s28-4 38-12c-8-12-20-20-38-20z" fill="#E8618C"/>
    <rect x="1026" y="182" width="8" height="24" rx="4" fill="#6B4A2A"/>
    <path d="M1034 190q26-18 40 2-24 12-40-2z" fill="#31C48D"/>
  </g>

  <!-- pencil -->
  <g transform="rotate(38 760 320)">
    <rect x="676" y="312" width="170" height="24" rx="4" fill="#000" opacity="0.12"/>
    <rect x="672" y="306" width="150" height="24" rx="3" fill="#FFC94A"/>
    <path d="M822 306l32 12-32 12z" fill="#F2E3C4"/>
    <path d="M846 313l8 5-8 5z" fill="#3A3A48"/>
    <rect x="672" y="306" width="22" height="24" rx="3" fill="#E8618C"/>
    <rect x="694" y="306" width="8" height="24" fill="#B9BCC4"/>
  </g>
</svg>
