<svg xmlns="http://www.w3.org/2000/svg" viewBox="0 0 1200 400" width="1200" height="400" role="img" aria-label="Wooden toy train engine and carriage on track pieces">
  <rect width="1200" height="400" fill="#5B6BD6"/>
  <circle cx="880" cy="200" r="235" fill="#000" opacity="0.08"/>

  <g transform="rotate(-2 880 260)">
    <!-- wooden track pieces -->
    <g>
      <rect x="640" y="320" width="248" height="30" rx="6" fill="#000" opacity="0.12"/>
      <rect x="640" y="314" width="248" height="30" rx="6" fill="#F2E3C4"/>
      <rect x="654" y="322" width="220" height="5" rx="2" fill="#E0A413"/>
      <rect x="654" y="332" width="220" height="5" rx="2" fill="#E0A413"/>
    </g>
    <g>
      <rect x="894" y="320" width="238" height="30" rx="6" fill="#000" opacity="0.12"/>
      <rect x="894" y="314" width="238" height="30" rx="6" fill="#F2E3C4"/>
      <rect x="908" y="322" width="210" height="5" rx="2" fill="#E0A413"/>
      <rect x="908" y="332" width="210" height="5" rx="2" fill="#E0A413"/>
    </g>

    <!-- carriage -->
    <g fill="#000" opacity="0.12" transform="translate(0 6)">
      <rect x="660" y="236" width="152" height="52" rx="8"/>
      <rect x="676" y="192" width="44" height="44" rx="6"/>
      <rect x="736" y="188" width="48" height="48" rx="6"/>
      <circle cx="696" cy="288" r="26"/>
      <circle cx="782" cy="288" r="26"/>
    </g>
    <g>
      <rect x="676" y="192" width="44" height="44" rx="6" fill="#FFC94A"/>
      <rect x="736" y="188" width="48" height="48" rx="6" fill="#E8618C"/>
      <rect x="812" y="258" width="32" height="10" rx="5" fill="#3A3A48"/>
      <rect x="660" y="236" width="152" height="52" rx="8" fill="#31C48D"/>
      <rect x="660" y="262" width="152" height="10" fill="#1E8A62"/>
      <g fill="#3A3A48">
        <circle cx="696" cy="288" r="26"/>
        <circle cx="782" cy="288" r="26"/>
      </g>
      <g fill="#FFC94A">
        <circle cx="696" cy="288" r="9"/>
        <circle cx="782" cy="288" r="9"/>
      </g>
    </g>

    <!-- engine -->
    <g fill="#000" opacity="0.12" transform="translate(0 6)">
      <rect x="828" y="142" width="106" height="16" rx="6"/>
      <rect x="838" y="152" width="86" height="72" rx="8"/>
      <rect x="968" y="164" width="50" height="14" rx="6"/>
      <rect x="976" y="170" width="34" height="50" rx="4"/>
      <rect x="838" y="216" width="190" height="72" rx="10"/>
      <rect x="1028" y="228" width="16" height="48" rx="4"/>
      <circle cx="886" cy="288" r="26"/>
      <circle cx="986" cy="288" r="26"/>
    </g>
    <g>
      <rect x="828" y="142" width="106" height="16" rx="6" fill="#5B3AC4"/>
      <rect x="838" y="152" width="86" height="72" rx="8" fill="#E8455A"/>
      <rect x="856" y="170" width="50" height="40" rx="6" fill="#FFF6F9"/>
      <rect x="976" y="170" width="34" height="50" rx="4" fill="#3A3A48"/>
      <rect x="968" y="164" width="50" height="14" rx="6" fill="#3A3A48"/>
      <rect x="1028" y="228" width="16" height="48" rx="4" fill="#FFC94A"/>
      <rect x="838" y="216" width="190" height="72" rx="10" fill="#E8455A"/>
      <rect x="838" y="248" width="190" height="12" fill="#FFC94A"/>
      <g fill="#3A3A48">
        <circle cx="886" cy="288" r="26"/>
        <circle cx="986" cy="288" r="26"/>
      </g>
      <g fill="#FFC94A">
        <circle cx="886" cy="288" r="9"/>
        <circle cx="986" cy="288" r="9"/>
      </g>
    </g>
  </g>
</svg>
