<svg xmlns="http://www.w3.org/2000/svg" viewBox="0 0 1200 400" width="1200" height="400" role="img" aria-label="Toy piano keyboard with a songbook and a metronome">
  <rect width="1200" height="400" fill="#C9911A"/>
  <circle cx="880" cy="200" r="235" fill="#000" opacity="0.08"/>

  <!-- toy piano keyboard slice -->
  <g transform="rotate(-6 786 242)">
    <rect x="636" y="166" width="300" height="164" rx="12" fill="#000" opacity="0.12"/>
    <rect x="636" y="160" width="300" height="164" rx="12" fill="#E8455A"/>
    <rect x="648" y="184" width="277" height="7" fill="#E8618C"/>
    <g fill="#FFF6F9">
      <rect x="648" y="192" width="32" height="122" rx="4"/>
      <rect x="683" y="192" width="32" height="122" rx="4"/>
      <rect x="718" y="192" width="32" height="122" rx="4"/>
      <rect x="753" y="192" width="32" height="122" rx="4"/>
      <rect x="788" y="192" width="32" height="122" rx="4"/>
      <rect x="823" y="192" width="32" height="122" rx="4"/>
      <rect x="858" y="192" width="32" height="122" rx="4"/>
      <rect x="893" y="192" width="32" height="122" rx="4"/>
    </g>
    <g fill="#3A3A48">
      <rect x="672" y="192" width="19" height="76" rx="3"/>
      <rect x="707" y="192" width="19" height="76" rx="3"/>
      <rect x="777" y="192" width="19" height="76" rx="3"/>
      <rect x="812" y="192" width="19" height="76" rx="3"/>
      <rect x="847" y="192" width="19" height="76" rx="3"/>
    </g>
  </g>

  <!-- songbook -->
  <g transform="rotate(8 1001 201)">
    <rect x="942" y="134" width="118" height="146" rx="6" fill="#000" opacity="0.12"/>
    <rect x="942" y="128" width="118" height="146" rx="6" fill="#31C48D"/>
    <rect x="1050" y="134" width="8" height="134" rx="3" fill="#FFF6F9"/>
    <rect x="942" y="128" width="15" height="146" rx="6" fill="#1E8A62"/>
    <rect x="1000" y="172" width="5" height="48" fill="#FFF6F9"/>
    <ellipse cx="990" cy="218" rx="13" ry="9" fill="#FFF6F9" transform="rotate(-18 990 218)"/>
  </g>

  <!-- metronome -->
  <g transform="rotate(6 1058 270)">
    <g transform="translate(0 6)" fill="#000" opacity="0.12">
      <path d="M1006 336L1036 202h44l30 134z"/>
      <rect x="1000" y="320" width="116" height="20" rx="5"/>
    </g>
    <rect x="1032" y="192" width="52" height="12" rx="5" fill="#6B4A2A"/>
    <path d="M1006 336L1036 202h44l30 134z" fill="#6B4A2A"/>
    <path d="M1024 318L1042 210h32l18 108z" fill="#FFF6F9"/>
    <g stroke="#B9BCC4" stroke-width="4" stroke-linecap="round">
      <path d="M1064 238h14M1069 264h14M1073 290h14M1077 312h14"/>
    </g>
    <g transform="rotate(-12 1058 322)">
      <rect x="1055" y="182" width="7" height="140" fill="#3A3A48"/>
      <rect x="1048" y="224" width="21" height="15" rx="3" fill="#E8455A"/>
    </g>
    <rect x="1000" y="320" width="116" height="20" rx="5" fill="#3A3A48"/>
  </g>
</svg>
