<svg xmlns="http://www.w3.org/2000/svg" viewBox="0 0 1200 400" width="1200" height="400" role="img" aria-label="Water bottle with a cup and water droplets">
  <rect width="1200" height="400" fill="#D98A1F"/>
  <circle cx="880" cy="200" r="235" fill="#000" opacity="0.08"/>

  <!-- water bottle -->
  <g transform="translate(786 130) rotate(-6)">
    <rect x="-24" y="-20" width="48" height="28" rx="7" fill="#000" opacity="0.12"/>
    <path d="M-17 6 h34 v28 l35 30 v136 a16 16 0 0 1 -16 16 h-72 a16 16 0 0 1 -16 -16 v-136 l35 -30 z" fill="#000" opacity="0.12"/>
    <path d="M-17 0 h34 v28 l35 30 v136 a16 16 0 0 1 -16 16 h-72 a16 16 0 0 1 -16 -16 v-136 l35 -30 z" fill="#FFF6F9"/>
    <rect x="-44" y="76" width="88" height="126" rx="12" fill="#5B6BD6"/>
    <rect x="-52" y="120" width="104" height="48" fill="#FFFFFF"/>
    <path d="M-36 148 q12 -14 24 0 t24 0 t24 0" fill="none" stroke="#5B6BD6" stroke-width="6" stroke-linecap="round"/>
    <rect x="-17" y="2" width="34" height="7" rx="3" fill="#B9BCC4"/>
    <rect x="-24" y="-26" width="48" height="28" rx="7" fill="#31C48D"/>
    <rect x="-18" y="-21" width="36" height="5" rx="2" fill="#1E8A62"/>
    <rect x="-18" y="-11" width="36" height="5" rx="2" fill="#1E8A62"/>
  </g>

  <!-- cup -->
  <g transform="rotate(4 910 254)">
    <path d="M856 196 h108 l-10 148 a12 12 0 0 1-12 11 h-64 a12 12 0 0 1-12-11 z" fill="#000" opacity="0.12"/>
    <path d="M856 190 h108 l-10 148 a12 12 0 0 1-12 11 h-64 a12 12 0 0 1-12-11 z" fill="#FFFFFF"/>
    <path d="M864 250 h92 l-9 88 a12 12 0 0 1-12 11 h-50 a12 12 0 0 1-12-11 z" fill="#5B6BD6"/>
    <ellipse cx="910" cy="250" rx="46" ry="8" fill="#FFFFFF" opacity="0.3"/>
    <ellipse cx="910" cy="190" rx="54" ry="11" fill="#B9BCC4"/>
    <ellipse cx="910" cy="190" rx="44" ry="7" fill="#FFF6F9"/>
  </g>

  <!-- water droplets -->
  <g transform="translate(1024 120) rotate(14)">
    <path d="M0 6 q18 26 18 40 a18 18 0 0 1 -36 0 q0 -14 18 -40 z" fill="#000" opacity="0.12"/>
    <path d="M0 0 q18 26 18 40 a18 18 0 0 1 -36 0 q0 -14 18 -40 z" fill="#5B6BD6"/>
  </g>
  <g transform="translate(1086 206) rotate(-14)">
    <path d="M0 6 q18 26 18 40 a18 18 0 0 1 -36 0 q0 -14 18 -40 z" fill="#000" opacity="0.12"/>
    <path d="M0 0 q18 26 18 40 a18 18 0 0 1 -36 0 q0 -14 18 -40 z" fill="#5B6BD6"/>
  </g>
  <g transform="translate(986 256) rotate(8)">
    <path d="M0 6 q18 26 18 40 a18 18 0 0 1 -36 0 q0 -14 18 -40 z" fill="#000" opacity="0.12"/>
    <path d="M0 0 q18 26 18 40 a18 18 0 0 1 -36 0 q0 -14 18 -40 z" fill="#5B6BD6"/>
  </g>
</svg>
