<svg xmlns="http://www.w3.org/2000/svg" viewBox="0 0 1200 400" width="1200" height="400" role="img" aria-label="Watering can with a seed packet and trowel">
 <rect width="1200" height="400" fill="#2F8F6B"/>
 <circle cx="880" cy="200" r="235" fill="#000" opacity="0.08"/>
 <defs>
  <ellipse id="sd" rx="9" ry="6"/>
  <g id="cn"><path d="M814 262 724 206 702 240 812 306z"/><ellipse cx="710" cy="221" rx="15" ry="27" transform="rotate(32 710 221)"/><path d="M816 192q64-74 128 0" fill="none" stroke="#000" stroke-width="18" stroke-linecap="round"/><path d="M806 196h148l-13 128a16 16 0 0 1-16 14h-90a16 16 0 0 1-16-14z"/><ellipse cx="880" cy="196" rx="74" ry="15"/></g>
  <g id="tw"><path d="M788 298c-40-4-76 4-90 18 14 14 50 22 90 18z"/><rect x="784" y="302" width="22" height="28" rx="3"/><rect x="802" y="301" width="74" height="30" rx="15"/></g>
 </defs>
 <g transform="rotate(9 1025 217)">
  <rect x="950" y="128" width="150" height="190" rx="6" fill="#000" opacity=".12"/>
  <rect x="950" y="122" width="150" height="190" rx="6" fill="#FFF6F9"/>
  <path d="M956 122h138a6 6 0 0 1 6 6v32H950v-32a6 6 0 0 1 6-6z" fill="#E8618C"/>
  <text x="1025" y="151" font-family="Verdana,DejaVu Sans,sans-serif" font-size="21" font-weight="bold" fill="#FFF6F9" text-anchor="middle">SEEDS</text>
  <path d="M1025 232v46" stroke="#1E8A62" stroke-width="7" stroke-linecap="round"/>
  <path d="M1025 258q-30-10-34 12 28 8 34-12z" fill="#31C48D"/>
  <g fill="#7C5CFF"><circle cx="1025" cy="188" r="15"/><circle cx="1047" cy="210" r="15"/><circle cx="1025" cy="232" r="15"/><circle cx="1003" cy="210" r="15"/></g>
  <circle cx="1025" cy="210" r="13" fill="#FFC94A"/>
  <g fill="#B9BCC4"><rect x="980" y="288" width="90" height="8" rx="4"/><rect x="994" y="302" width="62" height="8" rx="4"/></g>
 </g>
 <g fill="#000" opacity=".12">
  <use href="#sd" transform="translate(980 342)rotate(-20)"/><use href="#sd" transform="translate(1016 350)rotate(14)"/>
  <use href="#sd" transform="translate(1052 344)rotate(38)"/><use href="#sd" transform="translate(948 352)rotate(-46)"/>
 </g>
 <g fill="#6B4A2A">
  <use href="#sd" transform="translate(980 336)rotate(-20)"/><use href="#sd" transform="translate(1016 344)rotate(14)"/>
  <use href="#sd" transform="translate(1052 338)rotate(38)"/><use href="#sd" transform="translate(948 346)rotate(-46)"/>
 </g>
 <use href="#cn" transform="translate(0 6)rotate(4 880 250)" fill="#000" opacity=".12"/>
 <g transform="rotate(4 880 250)">
  <path d="M814 262 724 206 702 240 812 306z" fill="#E0A413"/>
  <ellipse cx="710" cy="221" rx="15" ry="27" transform="rotate(32 710 221)" fill="#FFC94A"/>
  <ellipse cx="710" cy="221" rx="7" ry="16" transform="rotate(32 710 221)" fill="#E0A413"/>
  <path d="M816 192q64-74 128 0" fill="none" stroke="#E0A413" stroke-width="18" stroke-linecap="round"/>
  <path d="M806 196h148l-13 128a16 16 0 0 1-16 14h-90a16 16 0 0 1-16-14z" fill="#FFC94A"/>
  <path d="M811 252h137l-2 20h-133z" fill="#E0A413"/>
  <rect x="826" y="212" width="16" height="30" rx="8" fill="#FFF" opacity=".35"/>
  <ellipse cx="880" cy="196" rx="74" ry="15" fill="#FFC94A"/>
  <ellipse cx="880" cy="196" rx="60" ry="9" fill="#E0A413"/>
 </g>
 <use href="#tw" transform="translate(0 6)rotate(-10 778 316)" fill="#000" opacity=".12"/>
 <g transform="rotate(-10 778 316)">
  <use href="#tw" fill="#B9BCC4"/>
  <rect x="716" y="312" width="62" height="7" rx="3.5" fill="#FFF" opacity=".35"/>
  <rect x="784" y="302" width="22" height="28" rx="3" fill="#E0A413"/>
  <rect x="802" y="301" width="74" height="30" rx="15" fill="#6B4A2A"/>
 </g>
</svg>
